M48
;DRILL file {Pcbnew (2013-jul-07)-stable} date Wed 24 Jun 2015 12:25:53 PM PDT
;FORMAT={-:-/ absolute / inch / decimal}
FMAT,2
INCH,TZ
T1C0.025
T2C0.032
T3C0.038
T4C0.040
T5C0.125
%
G90
G05
M72
T1
X7.73Y-4.3421
X8.0729Y-4.7568
T2
X5.39Y-3.41
X5.49Y-3.41
X5.59Y-3.41
X5.69Y-3.41
X5.75Y-5.31
X5.79Y-3.41
X5.85Y-5.31
X5.89Y-3.41
X5.95Y-5.31
X5.99Y-3.41
X6.05Y-5.31
X6.09Y-3.41
X6.15Y-5.31
X6.25Y-3.41
X6.25Y-5.31
X6.35Y-3.41
X6.45Y-3.41
X6.45Y-5.31
X6.55Y-3.41
X6.55Y-5.31
X6.65Y-3.41
X6.65Y-5.31
X6.75Y-3.41
X6.75Y-5.31
X6.85Y-3.41
X6.85Y-5.31
X6.95Y-3.41
X6.95Y-5.31
X7.05Y-5.31
X7.15Y-3.41
X7.15Y-5.31
X7.25Y-3.41
X7.35Y-3.41
X7.35Y-5.31
X7.45Y-3.41
X7.45Y-5.31
X7.55Y-3.41
X7.55Y-5.31
X7.65Y-3.41
X7.65Y-5.31
X7.75Y-3.41
X7.75Y-5.31
X7.85Y-3.41
X7.85Y-5.31
X7.95Y-5.31
X8.05Y-5.31
X8.15Y-3.41
X8.15Y-3.51
X8.15Y-3.61
X8.15Y-3.71
X8.15Y-3.81
X8.15Y-3.91
X8.15Y-4.01
X8.15Y-4.11
X8.15Y-4.21
X8.15Y-4.31
X8.15Y-4.41
X8.15Y-4.51
X8.15Y-4.61
X8.15Y-4.71
X8.15Y-4.81
X8.15Y-4.91
X8.15Y-5.01
X8.15Y-5.11
X8.25Y-3.41
X8.25Y-3.51
X8.25Y-3.61
X8.25Y-3.71
X8.25Y-3.81
X8.25Y-3.91
X8.25Y-4.01
X8.25Y-4.11
X8.25Y-4.21
X8.25Y-4.31
X8.25Y-4.41
X8.25Y-4.51
X8.25Y-4.61
X8.25Y-4.71
X8.25Y-4.81
X8.25Y-4.91
X8.25Y-5.01
X8.25Y-5.11
T3
X8.67Y-3.4649
X8.67Y-3.6027
X8.67Y-3.7403
X8.67Y-3.878
X8.67Y-4.0157
X8.67Y-4.1535
X8.67Y-4.2912
X8.67Y-4.4288
X8.67Y-4.5666
X8.67Y-4.7043
X8.67Y-4.8419
X8.67Y-4.9796
X8.67Y-5.1174
X8.67Y-5.255
T4
X7.26Y-3.8
X7.26Y-3.9
X7.26Y-4.81
X7.26Y-4.91
X7.36Y-3.8
X7.36Y-3.9
X7.36Y-4.81
X7.36Y-4.91
X7.46Y-3.8
X7.46Y-3.9
X7.46Y-4.81
X7.46Y-4.91
X7.56Y-3.8
X7.56Y-3.9
X7.56Y-4.81
X7.56Y-4.91
X7.66Y-3.8
X7.66Y-3.9
X7.66Y-4.81
X7.66Y-4.91
T5
X5.Y-5.31
X5.05Y-3.41
X8.Y-3.41
X8.25Y-5.31
T0
M30
