G04 (created by PCBNEW (2013-jul-07)-stable) date Wed 24 Jun 2015 12:25:48 PM PDT*
%MOIN*%
G04 Gerber Fmt 3.4, Leading zero omitted, Abs format*
%FSLAX34Y34*%
G01*
G70*
G90*
G04 APERTURE LIST*
%ADD10C,0.00590551*%
%ADD11O,0.1X0.065*%
%ADD12R,0.07X0.07*%
%ADD13C,0.07*%
%ADD14O,0.06X0.1*%
%ADD15C,0.155*%
%ADD16C,0.06*%
%ADD17C,0.035*%
%ADD18C,0.015*%
G04 APERTURE END LIST*
G54D10*
G54D11*
X86700Y-52550D03*
X86700Y-51173D03*
X86700Y-49796D03*
X86700Y-48419D03*
X86700Y-47042D03*
X86700Y-45665D03*
X86700Y-44288D03*
X86700Y-42911D03*
X86700Y-41534D03*
X86700Y-40157D03*
X86700Y-37403D03*
X86700Y-38780D03*
X86700Y-36026D03*
X86700Y-34649D03*
G54D12*
X72600Y-39000D03*
G54D13*
X72600Y-38000D03*
X73600Y-39000D03*
X73600Y-38000D03*
X74600Y-39000D03*
X74600Y-38000D03*
X75600Y-39000D03*
X75600Y-38000D03*
X76600Y-39000D03*
X76600Y-38000D03*
G54D12*
X72600Y-49100D03*
G54D13*
X72600Y-48100D03*
X73600Y-49100D03*
X73600Y-48100D03*
X74600Y-49100D03*
X74600Y-48100D03*
X75600Y-49100D03*
X75600Y-48100D03*
X76600Y-49100D03*
X76600Y-48100D03*
G54D14*
X71500Y-34100D03*
X72500Y-34100D03*
X73500Y-34100D03*
X74500Y-34100D03*
X75500Y-34100D03*
X76500Y-34100D03*
X77500Y-34100D03*
X78500Y-34100D03*
X80500Y-53100D03*
X79500Y-53100D03*
X78500Y-53100D03*
X77500Y-53100D03*
X73500Y-53100D03*
X71500Y-53100D03*
X70500Y-53100D03*
X74500Y-53100D03*
X75500Y-53100D03*
X76500Y-53100D03*
X69500Y-53100D03*
X68500Y-53100D03*
X67500Y-53100D03*
X64500Y-53100D03*
X65500Y-53100D03*
X66500Y-53100D03*
X62500Y-53100D03*
X61500Y-53100D03*
X60500Y-53100D03*
X58500Y-53100D03*
X57500Y-53100D03*
X69500Y-34100D03*
X68500Y-34100D03*
X67500Y-34100D03*
X66500Y-34100D03*
X65500Y-34100D03*
X64500Y-34100D03*
X63500Y-34100D03*
X62500Y-34100D03*
X60900Y-34100D03*
X59900Y-34100D03*
X58900Y-34100D03*
X57900Y-34100D03*
X56900Y-34100D03*
X55900Y-34100D03*
X54900Y-34100D03*
X53900Y-34100D03*
X59500Y-53100D03*
G54D15*
X82500Y-53100D03*
X80000Y-34100D03*
X50500Y-34100D03*
X50000Y-53100D03*
G54D16*
X81500Y-35100D03*
X82500Y-35100D03*
X81500Y-36100D03*
X82500Y-36100D03*
X81500Y-37100D03*
X82500Y-37100D03*
X81500Y-38100D03*
X82500Y-38100D03*
X81500Y-34100D03*
X82500Y-34100D03*
X82500Y-39100D03*
X81500Y-39100D03*
X81500Y-40100D03*
X82500Y-40100D03*
X81500Y-41100D03*
X82500Y-41100D03*
X81500Y-42100D03*
X82500Y-42100D03*
X81500Y-43100D03*
X82500Y-43100D03*
X81500Y-44100D03*
X82500Y-44100D03*
X81500Y-45100D03*
X82500Y-45100D03*
X81500Y-46100D03*
X82500Y-46100D03*
X81500Y-47100D03*
X82500Y-47100D03*
X81500Y-48100D03*
X82500Y-48100D03*
X81500Y-49100D03*
X82500Y-49100D03*
X81500Y-50100D03*
X82500Y-50100D03*
X81500Y-51100D03*
X82500Y-51100D03*
G54D17*
X77299Y-43420D03*
X80729Y-47568D03*
G54D18*
X72600Y-48100D02*
X72060Y-48100D01*
X72060Y-38539D02*
X72600Y-38000D01*
X72060Y-48100D02*
X72060Y-38539D01*
X59500Y-53100D02*
X59500Y-52424D01*
X86700Y-52550D02*
X86024Y-52550D01*
X62407Y-49517D02*
X72060Y-49517D01*
X59500Y-52424D02*
X62407Y-49517D01*
X72060Y-48100D02*
X72060Y-49517D01*
X85148Y-51673D02*
X86024Y-52550D01*
X74217Y-51673D02*
X85148Y-51673D01*
X72060Y-49517D02*
X74217Y-51673D01*
X87375Y-52767D02*
X87375Y-37403D01*
X87078Y-53063D02*
X87375Y-52767D01*
X84113Y-53063D02*
X87078Y-53063D01*
X83199Y-52149D02*
X84113Y-53063D01*
X66775Y-52149D02*
X83199Y-52149D01*
X66500Y-52424D02*
X66775Y-52149D01*
X66500Y-53100D02*
X66500Y-52424D01*
X86700Y-37403D02*
X87375Y-37403D01*
X75075Y-46624D02*
X73600Y-48100D01*
X81707Y-46624D02*
X75075Y-46624D01*
X81975Y-46891D02*
X81707Y-46624D01*
X81975Y-47517D02*
X81975Y-46891D01*
X82500Y-48042D02*
X81975Y-47517D01*
X82500Y-48100D02*
X82500Y-48042D01*
X86700Y-44288D02*
X86024Y-44288D01*
X78638Y-37238D02*
X75500Y-34100D01*
X78638Y-37927D02*
X78638Y-37238D01*
X81311Y-40600D02*
X78638Y-37927D01*
X82689Y-40600D02*
X81311Y-40600D01*
X86024Y-43935D02*
X82689Y-40600D01*
X86024Y-44288D02*
X86024Y-43935D01*
X80324Y-37600D02*
X77500Y-34775D01*
X81683Y-37600D02*
X80324Y-37600D01*
X81975Y-37891D02*
X81683Y-37600D01*
X81975Y-38259D02*
X81975Y-37891D01*
X82291Y-38575D02*
X81975Y-38259D01*
X83065Y-38575D02*
X82291Y-38575D01*
X86024Y-41534D02*
X83065Y-38575D01*
X86700Y-41534D02*
X86024Y-41534D01*
X77500Y-34100D02*
X77500Y-34775D01*
X86024Y-39950D02*
X86024Y-40157D01*
X82674Y-36600D02*
X86024Y-39950D01*
X80324Y-36600D02*
X82674Y-36600D01*
X78500Y-34775D02*
X80324Y-36600D01*
X78500Y-34100D02*
X78500Y-34775D01*
X86700Y-40157D02*
X86024Y-40157D01*
X67500Y-34100D02*
X67500Y-34775D01*
X86700Y-45665D02*
X86024Y-45665D01*
X75588Y-34775D02*
X67500Y-34775D01*
X78300Y-37487D02*
X75588Y-34775D01*
X78300Y-39598D02*
X78300Y-37487D01*
X81301Y-42600D02*
X78300Y-39598D01*
X82959Y-42600D02*
X81301Y-42600D01*
X86024Y-45665D02*
X82959Y-42600D01*
X66500Y-34100D02*
X66500Y-34775D01*
X86700Y-47042D02*
X86024Y-47042D01*
X67000Y-35275D02*
X66500Y-34775D01*
X75734Y-35275D02*
X67000Y-35275D01*
X78050Y-37590D02*
X75734Y-35275D01*
X78050Y-40348D02*
X78050Y-37590D01*
X81301Y-43600D02*
X78050Y-40348D01*
X82685Y-43600D02*
X81301Y-43600D01*
X86024Y-46938D02*
X82685Y-43600D01*
X86024Y-47042D02*
X86024Y-46938D01*
X65500Y-34100D02*
X65500Y-34775D01*
X86700Y-48419D02*
X86024Y-48419D01*
X67578Y-36853D02*
X65500Y-34775D01*
X76959Y-36853D02*
X67578Y-36853D01*
X77800Y-37694D02*
X76959Y-36853D01*
X77800Y-41075D02*
X77800Y-37694D01*
X81324Y-44600D02*
X77800Y-41075D01*
X82675Y-44600D02*
X81324Y-44600D01*
X86024Y-47949D02*
X82675Y-44600D01*
X86024Y-48419D02*
X86024Y-47949D01*
X86024Y-48927D02*
X86024Y-49796D01*
X82697Y-45600D02*
X86024Y-48927D01*
X81296Y-45600D02*
X82697Y-45600D01*
X77550Y-41853D02*
X81296Y-45600D01*
X77550Y-37797D02*
X77550Y-41853D01*
X76855Y-37103D02*
X77550Y-37797D01*
X66828Y-37103D02*
X76855Y-37103D01*
X64500Y-34775D02*
X66828Y-37103D01*
X64500Y-34100D02*
X64500Y-34775D01*
X86700Y-49796D02*
X86024Y-49796D01*
X75499Y-47200D02*
X74600Y-48100D01*
X80869Y-47200D02*
X75499Y-47200D01*
X81268Y-47600D02*
X80869Y-47200D01*
X81683Y-47600D02*
X81268Y-47600D01*
X81975Y-47891D02*
X81683Y-47600D01*
X81975Y-48575D02*
X81975Y-47891D01*
X82500Y-49100D02*
X81975Y-48575D01*
X77100Y-49600D02*
X76600Y-49100D01*
X82678Y-49600D02*
X77100Y-49600D01*
X82976Y-49301D02*
X82678Y-49600D01*
X82976Y-46576D02*
X82976Y-49301D01*
X82500Y-46100D02*
X82976Y-46576D01*
X76125Y-37474D02*
X75600Y-38000D01*
X76851Y-37474D02*
X76125Y-37474D01*
X77299Y-37923D02*
X76851Y-37474D01*
X77299Y-43420D02*
X77299Y-37923D01*
X76131Y-47568D02*
X80729Y-47568D01*
X75600Y-48100D02*
X76131Y-47568D01*
X76600Y-50100D02*
X81500Y-50100D01*
X75600Y-49100D02*
X76600Y-50100D01*
X74123Y-50623D02*
X72600Y-49100D01*
X85474Y-50623D02*
X74123Y-50623D01*
X86024Y-51173D02*
X85474Y-50623D01*
X86700Y-51173D02*
X86024Y-51173D01*
M02*
