G04 (created by PCBNEW (2013-jul-07)-stable) date Wed 24 Jun 2015 12:25:48 PM PDT*
%MOIN*%
G04 Gerber Fmt 3.4, Leading zero omitted, Abs format*
%FSLAX34Y34*%
G01*
G70*
G90*
G04 APERTURE LIST*
%ADD10C,0.00590551*%
%ADD11O,0.1X0.065*%
%ADD12R,0.07X0.07*%
%ADD13C,0.07*%
%ADD14O,0.06X0.1*%
%ADD15C,0.155*%
%ADD16C,0.06*%
%ADD17C,0.035*%
%ADD18C,0.015*%
G04 APERTURE END LIST*
G54D10*
G54D11*
X86700Y-52550D03*
X86700Y-51173D03*
X86700Y-49796D03*
X86700Y-48419D03*
X86700Y-47042D03*
X86700Y-45665D03*
X86700Y-44288D03*
X86700Y-42911D03*
X86700Y-41534D03*
X86700Y-40157D03*
X86700Y-37403D03*
X86700Y-38780D03*
X86700Y-36026D03*
X86700Y-34649D03*
G54D12*
X72600Y-39000D03*
G54D13*
X72600Y-38000D03*
X73600Y-39000D03*
X73600Y-38000D03*
X74600Y-39000D03*
X74600Y-38000D03*
X75600Y-39000D03*
X75600Y-38000D03*
X76600Y-39000D03*
X76600Y-38000D03*
G54D12*
X72600Y-49100D03*
G54D13*
X72600Y-48100D03*
X73600Y-49100D03*
X73600Y-48100D03*
X74600Y-49100D03*
X74600Y-48100D03*
X75600Y-49100D03*
X75600Y-48100D03*
X76600Y-49100D03*
X76600Y-48100D03*
G54D14*
X71500Y-34100D03*
X72500Y-34100D03*
X73500Y-34100D03*
X74500Y-34100D03*
X75500Y-34100D03*
X76500Y-34100D03*
X77500Y-34100D03*
X78500Y-34100D03*
X80500Y-53100D03*
X79500Y-53100D03*
X78500Y-53100D03*
X77500Y-53100D03*
X73500Y-53100D03*
X71500Y-53100D03*
X70500Y-53100D03*
X74500Y-53100D03*
X75500Y-53100D03*
X76500Y-53100D03*
X69500Y-53100D03*
X68500Y-53100D03*
X67500Y-53100D03*
X64500Y-53100D03*
X65500Y-53100D03*
X66500Y-53100D03*
X62500Y-53100D03*
X61500Y-53100D03*
X60500Y-53100D03*
X58500Y-53100D03*
X57500Y-53100D03*
X69500Y-34100D03*
X68500Y-34100D03*
X67500Y-34100D03*
X66500Y-34100D03*
X65500Y-34100D03*
X64500Y-34100D03*
X63500Y-34100D03*
X62500Y-34100D03*
X60900Y-34100D03*
X59900Y-34100D03*
X58900Y-34100D03*
X57900Y-34100D03*
X56900Y-34100D03*
X55900Y-34100D03*
X54900Y-34100D03*
X53900Y-34100D03*
X59500Y-53100D03*
G54D15*
X82500Y-53100D03*
X80000Y-34100D03*
X50500Y-34100D03*
X50000Y-53100D03*
G54D16*
X81500Y-35100D03*
X82500Y-35100D03*
X81500Y-36100D03*
X82500Y-36100D03*
X81500Y-37100D03*
X82500Y-37100D03*
X81500Y-38100D03*
X82500Y-38100D03*
X81500Y-34100D03*
X82500Y-34100D03*
X82500Y-39100D03*
X81500Y-39100D03*
X81500Y-40100D03*
X82500Y-40100D03*
X81500Y-41100D03*
X82500Y-41100D03*
X81500Y-42100D03*
X82500Y-42100D03*
X81500Y-43100D03*
X82500Y-43100D03*
X81500Y-44100D03*
X82500Y-44100D03*
X81500Y-45100D03*
X82500Y-45100D03*
X81500Y-46100D03*
X82500Y-46100D03*
X81500Y-47100D03*
X82500Y-47100D03*
X81500Y-48100D03*
X82500Y-48100D03*
X81500Y-49100D03*
X82500Y-49100D03*
X81500Y-50100D03*
X82500Y-50100D03*
X81500Y-51100D03*
X82500Y-51100D03*
G54D17*
X77299Y-43420D03*
X80729Y-47568D03*
G54D18*
X86024Y-40404D02*
X86024Y-34649D01*
X86466Y-40845D02*
X86024Y-40404D01*
X86908Y-40845D02*
X86466Y-40845D01*
X87375Y-41312D02*
X86908Y-40845D01*
X87375Y-44533D02*
X87375Y-41312D01*
X86931Y-44977D02*
X87375Y-44533D01*
X86487Y-44977D02*
X86931Y-44977D01*
X84689Y-46774D02*
X86487Y-44977D01*
X84689Y-48599D02*
X84689Y-46774D01*
X82689Y-50600D02*
X84689Y-48599D01*
X82295Y-50600D02*
X82689Y-50600D01*
X82000Y-50895D02*
X82295Y-50600D01*
X82000Y-51302D02*
X82000Y-50895D01*
X81689Y-51612D02*
X82000Y-51302D01*
X65312Y-51612D02*
X81689Y-51612D01*
X64500Y-52424D02*
X65312Y-51612D01*
X64500Y-53100D02*
X64500Y-52424D01*
X86700Y-34649D02*
X86024Y-34649D01*
X87886Y-36537D02*
X87375Y-36026D01*
X87886Y-48131D02*
X87886Y-36537D01*
X86898Y-49119D02*
X87886Y-48131D01*
X86358Y-49119D02*
X86898Y-49119D01*
X83327Y-52149D02*
X86358Y-49119D01*
X73323Y-52149D02*
X83327Y-52149D01*
X71698Y-53775D02*
X73323Y-52149D01*
X65500Y-53775D02*
X71698Y-53775D01*
X65500Y-53100D02*
X65500Y-53775D01*
X86700Y-36026D02*
X87375Y-36026D01*
X87634Y-39040D02*
X87375Y-38780D01*
X87634Y-45628D02*
X87634Y-39040D01*
X87076Y-46187D02*
X87634Y-45628D01*
X86672Y-46187D02*
X87076Y-46187D01*
X85860Y-47000D02*
X86672Y-46187D01*
X85860Y-48413D02*
X85860Y-47000D01*
X82386Y-51887D02*
X85860Y-48413D01*
X68037Y-51887D02*
X82386Y-51887D01*
X67500Y-52424D02*
X68037Y-51887D01*
X67500Y-53100D02*
X67500Y-52424D01*
X86700Y-38780D02*
X87375Y-38780D01*
X74403Y-37196D02*
X73600Y-38000D01*
X76896Y-37196D02*
X74403Y-37196D01*
X77864Y-38164D02*
X76896Y-37196D01*
X77864Y-42136D02*
X77864Y-38164D01*
X81327Y-45600D02*
X77864Y-42136D01*
X82683Y-45600D02*
X81327Y-45600D01*
X83243Y-46159D02*
X82683Y-45600D01*
X83243Y-49356D02*
X83243Y-46159D01*
X82500Y-50100D02*
X83243Y-49356D01*
X82713Y-39600D02*
X86024Y-42911D01*
X81324Y-39600D02*
X82713Y-39600D01*
X76500Y-34775D02*
X81324Y-39600D01*
X76500Y-34100D02*
X76500Y-34775D01*
X86700Y-42911D02*
X86024Y-42911D01*
X75130Y-49630D02*
X74600Y-49100D01*
X77132Y-49630D02*
X75130Y-49630D01*
X74600Y-45090D02*
X74600Y-39000D01*
X77132Y-47622D02*
X74600Y-45090D01*
X77132Y-49630D02*
X77132Y-47622D01*
X78077Y-50575D02*
X77132Y-49630D01*
X81697Y-50575D02*
X78077Y-50575D01*
X82000Y-50273D02*
X81697Y-50575D01*
X82000Y-49600D02*
X82000Y-50273D01*
X81500Y-49100D02*
X82000Y-49600D01*
X75145Y-37454D02*
X74600Y-38000D01*
X76799Y-37454D02*
X75145Y-37454D01*
X77440Y-38095D02*
X76799Y-37454D01*
X77440Y-42712D02*
X77440Y-38095D01*
X81303Y-46575D02*
X77440Y-42712D01*
X82647Y-46575D02*
X81303Y-46575D01*
X82978Y-46905D02*
X82647Y-46575D01*
X82978Y-48621D02*
X82978Y-46905D01*
X82500Y-49100D02*
X82978Y-48621D01*
X76600Y-42225D02*
X76600Y-39000D01*
X81474Y-47100D02*
X76600Y-42225D01*
X81500Y-47100D02*
X81474Y-47100D01*
X77299Y-44638D02*
X77299Y-43420D01*
X80761Y-48100D02*
X77299Y-44638D01*
X81500Y-48100D02*
X80761Y-48100D01*
X80757Y-47596D02*
X80729Y-47568D01*
X82003Y-47596D02*
X80757Y-47596D01*
X82500Y-47100D02*
X82003Y-47596D01*
X75600Y-44200D02*
X81500Y-50100D01*
X75600Y-39000D02*
X75600Y-44200D01*
X51675Y-53775D02*
X60500Y-53775D01*
X50500Y-52600D02*
X51675Y-53775D01*
X50000Y-53100D02*
X50500Y-52600D01*
X50500Y-52600D02*
X50500Y-34100D01*
X84098Y-53100D02*
X86024Y-51173D01*
X82500Y-53100D02*
X84098Y-53100D01*
X86700Y-51173D02*
X86024Y-51173D01*
X61500Y-53100D02*
X61500Y-52424D01*
X72074Y-38474D02*
X72600Y-39000D01*
X72074Y-37776D02*
X72074Y-38474D01*
X73171Y-36679D02*
X72074Y-37776D01*
X73798Y-36679D02*
X73171Y-36679D01*
X76000Y-34477D02*
X73798Y-36679D01*
X76000Y-33717D02*
X76000Y-34477D01*
X76310Y-33407D02*
X76000Y-33717D01*
X79307Y-33407D02*
X76310Y-33407D01*
X80000Y-34100D02*
X79307Y-33407D01*
X72061Y-40063D02*
X72600Y-39525D01*
X72061Y-49100D02*
X72061Y-40063D01*
X64824Y-49100D02*
X72061Y-49100D01*
X61500Y-52424D02*
X64824Y-49100D01*
X72061Y-49100D02*
X72600Y-49100D01*
X72600Y-39000D02*
X72600Y-39525D01*
X60500Y-53100D02*
X60500Y-53437D01*
X60500Y-53437D02*
X60500Y-53775D01*
X60837Y-53775D02*
X61500Y-53775D01*
X60500Y-53437D02*
X60837Y-53775D01*
X61500Y-53100D02*
X61500Y-53775D01*
M02*
