M48
;DRILL file {Pcbnew (2013-jul-07)-stable} date Wed 24 Jun 2015 12:24:48 PM PDT
;FORMAT={-:-/ absolute / inch / decimal}
FMAT,2
INCH,TZ
T1C0.025
T2C0.040
%
G90
G05
M72
T1
X2.2379Y-2.4144
X2.7317Y-2.373
T2
X2.05Y-2.06
X2.15Y-2.06
X2.25Y-2.06
X2.3Y-2.47
X2.3Y-2.57
X2.35Y-2.06
X2.4Y-2.47
X2.4Y-2.57
X2.45Y-2.06
X2.5Y-2.47
X2.5Y-2.57
X2.55Y-2.06
X2.6Y-2.47
X2.6Y-2.57
X2.65Y-2.06
X2.7Y-2.47
X2.7Y-2.57
X2.75Y-2.06
X2.85Y-2.06
X2.95Y-2.06
T0
M30
