G04 (created by PCBNEW (2013-jul-07)-stable) date Wed 24 Jun 2015 12:24:46 PM PDT*
%MOIN*%
G04 Gerber Fmt 3.4, Leading zero omitted, Abs format*
%FSLAX34Y34*%
G01*
G70*
G90*
G04 APERTURE LIST*
%ADD10C,0.00590551*%
%ADD11C,0.008*%
%ADD12C,0.015*%
G04 APERTURE END LIST*
G54D10*
G54D11*
X28761Y-22314D02*
X28361Y-22314D01*
X28761Y-22085D01*
X28361Y-22085D01*
X28761Y-21895D02*
X28361Y-21895D01*
X28361Y-21742D01*
X28380Y-21704D01*
X28400Y-21685D01*
X28438Y-21666D01*
X28495Y-21666D01*
X28533Y-21685D01*
X28552Y-21704D01*
X28571Y-21742D01*
X28571Y-21895D01*
X28761Y-21495D02*
X28361Y-21495D01*
X28361Y-21399D01*
X28380Y-21342D01*
X28419Y-21304D01*
X28457Y-21285D01*
X28533Y-21266D01*
X28590Y-21266D01*
X28666Y-21285D01*
X28704Y-21304D01*
X28742Y-21342D01*
X28761Y-21399D01*
X28761Y-21495D01*
X27761Y-22019D02*
X27571Y-22152D01*
X27761Y-22247D02*
X27361Y-22247D01*
X27361Y-22095D01*
X27380Y-22057D01*
X27400Y-22038D01*
X27438Y-22019D01*
X27495Y-22019D01*
X27533Y-22038D01*
X27552Y-22057D01*
X27571Y-22095D01*
X27571Y-22247D01*
X27742Y-21866D02*
X27761Y-21809D01*
X27761Y-21714D01*
X27742Y-21676D01*
X27723Y-21657D01*
X27685Y-21638D01*
X27647Y-21638D01*
X27609Y-21657D01*
X27590Y-21676D01*
X27571Y-21714D01*
X27552Y-21790D01*
X27533Y-21828D01*
X27514Y-21847D01*
X27476Y-21866D01*
X27438Y-21866D01*
X27400Y-21847D01*
X27380Y-21828D01*
X27361Y-21790D01*
X27361Y-21695D01*
X27380Y-21638D01*
X27361Y-21523D02*
X27361Y-21295D01*
X27761Y-21409D02*
X27361Y-21409D01*
X26742Y-22314D02*
X26761Y-22257D01*
X26761Y-22161D01*
X26742Y-22123D01*
X26723Y-22104D01*
X26685Y-22085D01*
X26647Y-22085D01*
X26609Y-22104D01*
X26590Y-22123D01*
X26571Y-22161D01*
X26552Y-22238D01*
X26533Y-22276D01*
X26514Y-22295D01*
X26476Y-22314D01*
X26438Y-22314D01*
X26400Y-22295D01*
X26380Y-22276D01*
X26361Y-22238D01*
X26361Y-22142D01*
X26380Y-22085D01*
X26723Y-21685D02*
X26742Y-21704D01*
X26761Y-21761D01*
X26761Y-21800D01*
X26742Y-21857D01*
X26704Y-21895D01*
X26666Y-21914D01*
X26590Y-21933D01*
X26533Y-21933D01*
X26457Y-21914D01*
X26419Y-21895D01*
X26380Y-21857D01*
X26361Y-21800D01*
X26361Y-21761D01*
X26380Y-21704D01*
X26400Y-21685D01*
X26761Y-21514D02*
X26361Y-21514D01*
X26761Y-21285D02*
X26533Y-21457D01*
X26361Y-21285D02*
X26590Y-21514D01*
X25761Y-22528D02*
X25361Y-22528D01*
X25647Y-22395D01*
X25361Y-22261D01*
X25761Y-22261D01*
X25361Y-21995D02*
X25361Y-21919D01*
X25380Y-21880D01*
X25419Y-21842D01*
X25495Y-21823D01*
X25628Y-21823D01*
X25704Y-21842D01*
X25742Y-21880D01*
X25761Y-21919D01*
X25761Y-21995D01*
X25742Y-22033D01*
X25704Y-22071D01*
X25628Y-22090D01*
X25495Y-22090D01*
X25419Y-22071D01*
X25380Y-22033D01*
X25361Y-21995D01*
X25742Y-21671D02*
X25761Y-21614D01*
X25761Y-21519D01*
X25742Y-21480D01*
X25723Y-21461D01*
X25685Y-21442D01*
X25647Y-21442D01*
X25609Y-21461D01*
X25590Y-21480D01*
X25571Y-21519D01*
X25552Y-21595D01*
X25533Y-21633D01*
X25514Y-21652D01*
X25476Y-21671D01*
X25438Y-21671D01*
X25400Y-21652D01*
X25380Y-21633D01*
X25361Y-21595D01*
X25361Y-21500D01*
X25380Y-21442D01*
X25761Y-21271D02*
X25361Y-21271D01*
X24661Y-22528D02*
X24261Y-22528D01*
X24547Y-22395D01*
X24261Y-22261D01*
X24661Y-22261D01*
X24661Y-22071D02*
X24261Y-22071D01*
X24642Y-21899D02*
X24661Y-21842D01*
X24661Y-21747D01*
X24642Y-21709D01*
X24623Y-21690D01*
X24585Y-21671D01*
X24547Y-21671D01*
X24509Y-21690D01*
X24490Y-21709D01*
X24471Y-21747D01*
X24452Y-21823D01*
X24433Y-21861D01*
X24414Y-21880D01*
X24376Y-21899D01*
X24338Y-21899D01*
X24300Y-21880D01*
X24280Y-21861D01*
X24261Y-21823D01*
X24261Y-21728D01*
X24280Y-21671D01*
X24261Y-21423D02*
X24261Y-21347D01*
X24280Y-21309D01*
X24319Y-21271D01*
X24395Y-21252D01*
X24528Y-21252D01*
X24604Y-21271D01*
X24642Y-21309D01*
X24661Y-21347D01*
X24661Y-21423D01*
X24642Y-21461D01*
X24604Y-21499D01*
X24528Y-21519D01*
X24395Y-21519D01*
X24319Y-21499D01*
X24280Y-21461D01*
X24261Y-21423D01*
X23623Y-21666D02*
X23642Y-21685D01*
X23661Y-21742D01*
X23661Y-21780D01*
X23642Y-21838D01*
X23604Y-21876D01*
X23566Y-21895D01*
X23490Y-21914D01*
X23433Y-21914D01*
X23357Y-21895D01*
X23319Y-21876D01*
X23280Y-21838D01*
X23261Y-21780D01*
X23261Y-21742D01*
X23280Y-21685D01*
X23300Y-21666D01*
X23642Y-21514D02*
X23661Y-21457D01*
X23661Y-21361D01*
X23642Y-21323D01*
X23623Y-21304D01*
X23585Y-21285D01*
X23547Y-21285D01*
X23509Y-21304D01*
X23490Y-21323D01*
X23471Y-21361D01*
X23452Y-21438D01*
X23433Y-21476D01*
X23414Y-21495D01*
X23376Y-21514D01*
X23338Y-21514D01*
X23300Y-21495D01*
X23280Y-21476D01*
X23261Y-21438D01*
X23261Y-21342D01*
X23280Y-21285D01*
X21361Y-21676D02*
X21361Y-21866D01*
X21552Y-21885D01*
X21533Y-21866D01*
X21514Y-21828D01*
X21514Y-21733D01*
X21533Y-21695D01*
X21552Y-21676D01*
X21590Y-21657D01*
X21685Y-21657D01*
X21723Y-21676D01*
X21742Y-21695D01*
X21761Y-21733D01*
X21761Y-21828D01*
X21742Y-21866D01*
X21723Y-21885D01*
X21361Y-21542D02*
X21761Y-21409D01*
X21361Y-21276D01*
X20380Y-22104D02*
X20361Y-22142D01*
X20361Y-22200D01*
X20380Y-22257D01*
X20419Y-22295D01*
X20457Y-22314D01*
X20533Y-22333D01*
X20590Y-22333D01*
X20666Y-22314D01*
X20704Y-22295D01*
X20742Y-22257D01*
X20761Y-22200D01*
X20761Y-22161D01*
X20742Y-22104D01*
X20723Y-22085D01*
X20590Y-22085D01*
X20590Y-22161D01*
X20761Y-21914D02*
X20361Y-21914D01*
X20761Y-21685D01*
X20361Y-21685D01*
X20761Y-21495D02*
X20361Y-21495D01*
X20361Y-21399D01*
X20380Y-21342D01*
X20419Y-21304D01*
X20457Y-21285D01*
X20533Y-21266D01*
X20590Y-21266D01*
X20666Y-21285D01*
X20704Y-21304D01*
X20742Y-21342D01*
X20761Y-21399D01*
X20761Y-21495D01*
G54D12*
X20000Y-20100D02*
X20000Y-21100D01*
X30000Y-21100D02*
X20000Y-21100D01*
X24000Y-20100D02*
X30000Y-20100D01*
X30000Y-20100D02*
X30000Y-21100D01*
X24000Y-20100D02*
X20000Y-20100D01*
G54D11*
X29204Y-21661D02*
X29204Y-21261D01*
X29357Y-21261D01*
X29395Y-21280D01*
X29414Y-21300D01*
X29433Y-21338D01*
X29433Y-21395D01*
X29414Y-21433D01*
X29395Y-21452D01*
X29357Y-21471D01*
X29204Y-21471D01*
X29585Y-21300D02*
X29604Y-21280D01*
X29642Y-21261D01*
X29738Y-21261D01*
X29776Y-21280D01*
X29795Y-21300D01*
X29814Y-21338D01*
X29814Y-21376D01*
X29795Y-21433D01*
X29566Y-21661D01*
X29814Y-21661D01*
M02*
