G04 (created by PCBNEW (2013-jul-07)-stable) date Wed 24 Jun 2015 12:24:46 PM PDT*
%MOIN*%
G04 Gerber Fmt 3.4, Leading zero omitted, Abs format*
%FSLAX34Y34*%
G01*
G70*
G90*
G04 APERTURE LIST*
%ADD10C,0.00590551*%
%ADD11R,0.07X0.07*%
%ADD12C,0.07*%
%ADD13C,0.06*%
%ADD14R,0.06X0.06*%
%ADD15C,0.035*%
%ADD16C,0.015*%
G04 APERTURE END LIST*
G54D10*
G54D11*
X23000Y-24700D03*
G54D12*
X23000Y-25700D03*
X24000Y-24700D03*
X24000Y-25700D03*
X25000Y-24700D03*
X25000Y-25700D03*
X26000Y-24700D03*
X26000Y-25700D03*
X27000Y-24700D03*
X27000Y-25700D03*
G54D13*
X29500Y-20600D03*
X28500Y-20600D03*
X26500Y-20600D03*
X27500Y-20600D03*
X25500Y-20600D03*
X24500Y-20600D03*
G54D14*
X20500Y-20600D03*
G54D13*
X21500Y-20600D03*
X22500Y-20600D03*
X23500Y-20600D03*
G54D15*
X22379Y-24143D03*
X27317Y-23730D03*
G54D16*
X21500Y-24200D02*
X23000Y-25700D01*
X21500Y-20600D02*
X21500Y-24200D01*
X23500Y-23022D02*
X22379Y-24143D01*
X23500Y-20600D02*
X23500Y-23022D01*
X24500Y-24200D02*
X25000Y-24700D01*
X24500Y-20600D02*
X24500Y-24200D01*
X25540Y-26240D02*
X25000Y-25700D01*
X27205Y-26240D02*
X25540Y-26240D01*
X27546Y-25899D02*
X27205Y-26240D01*
X27546Y-23959D02*
X27546Y-25899D01*
X27317Y-23730D02*
X27546Y-23959D01*
X26967Y-24667D02*
X27000Y-24700D01*
X26967Y-22132D02*
X26967Y-24667D01*
X28500Y-20600D02*
X26967Y-22132D01*
X26500Y-24200D02*
X26000Y-24700D01*
X26500Y-20600D02*
X26500Y-24200D01*
M02*
