G04 (created by PCBNEW (2013-jul-07)-stable) date Wed 24 Jun 2015 12:24:46 PM PDT*
%MOIN*%
G04 Gerber Fmt 3.4, Leading zero omitted, Abs format*
%FSLAX34Y34*%
G01*
G70*
G90*
G04 APERTURE LIST*
%ADD10C,0.00590551*%
%ADD11C,0.008*%
%ADD12C,0.015*%
%ADD13C,0.01*%
G04 APERTURE END LIST*
G54D10*
G54D11*
X28404Y-21561D02*
X28328Y-21561D01*
X28290Y-21580D01*
X28252Y-21619D01*
X28233Y-21695D01*
X28233Y-21828D01*
X28252Y-21904D01*
X28290Y-21942D01*
X28328Y-21961D01*
X28404Y-21961D01*
X28442Y-21942D01*
X28480Y-21904D01*
X28499Y-21828D01*
X28499Y-21695D01*
X28480Y-21619D01*
X28442Y-21580D01*
X28404Y-21561D01*
X28061Y-21695D02*
X28061Y-22095D01*
X28061Y-21714D02*
X28023Y-21695D01*
X27947Y-21695D01*
X27909Y-21714D01*
X27890Y-21733D01*
X27871Y-21771D01*
X27871Y-21885D01*
X27890Y-21923D01*
X27909Y-21942D01*
X27947Y-21961D01*
X28023Y-21961D01*
X28061Y-21942D01*
X27757Y-21695D02*
X27604Y-21695D01*
X27699Y-21561D02*
X27699Y-21904D01*
X27680Y-21942D01*
X27642Y-21961D01*
X27604Y-21961D01*
X27471Y-21961D02*
X27471Y-21695D01*
X27471Y-21561D02*
X27490Y-21580D01*
X27471Y-21600D01*
X27452Y-21580D01*
X27471Y-21561D01*
X27471Y-21600D01*
X27109Y-21942D02*
X27147Y-21961D01*
X27223Y-21961D01*
X27261Y-21942D01*
X27280Y-21923D01*
X27299Y-21885D01*
X27299Y-21771D01*
X27280Y-21733D01*
X27261Y-21714D01*
X27223Y-21695D01*
X27147Y-21695D01*
X27109Y-21714D01*
X26499Y-21752D02*
X26633Y-21752D01*
X26633Y-21961D02*
X26633Y-21561D01*
X26442Y-21561D01*
X26233Y-21961D02*
X26271Y-21942D01*
X26290Y-21904D01*
X26290Y-21561D01*
X26023Y-21961D02*
X26061Y-21942D01*
X26080Y-21923D01*
X26099Y-21885D01*
X26099Y-21771D01*
X26080Y-21733D01*
X26061Y-21714D01*
X26023Y-21695D01*
X25966Y-21695D01*
X25928Y-21714D01*
X25909Y-21733D01*
X25890Y-21771D01*
X25890Y-21885D01*
X25909Y-21923D01*
X25928Y-21942D01*
X25966Y-21961D01*
X26023Y-21961D01*
X25757Y-21695D02*
X25680Y-21961D01*
X25604Y-21771D01*
X25528Y-21961D01*
X25452Y-21695D01*
X25014Y-21847D02*
X24823Y-21847D01*
X25052Y-21961D02*
X24919Y-21561D01*
X24785Y-21961D01*
X24480Y-21961D02*
X24480Y-21561D01*
X24480Y-21942D02*
X24519Y-21961D01*
X24595Y-21961D01*
X24633Y-21942D01*
X24652Y-21923D01*
X24671Y-21885D01*
X24671Y-21771D01*
X24652Y-21733D01*
X24633Y-21714D01*
X24595Y-21695D01*
X24519Y-21695D01*
X24480Y-21714D01*
X24119Y-21961D02*
X24119Y-21752D01*
X24138Y-21714D01*
X24176Y-21695D01*
X24252Y-21695D01*
X24290Y-21714D01*
X24119Y-21942D02*
X24157Y-21961D01*
X24252Y-21961D01*
X24290Y-21942D01*
X24309Y-21904D01*
X24309Y-21866D01*
X24290Y-21828D01*
X24252Y-21809D01*
X24157Y-21809D01*
X24119Y-21790D01*
X23928Y-21695D02*
X23928Y-22095D01*
X23928Y-21714D02*
X23890Y-21695D01*
X23814Y-21695D01*
X23776Y-21714D01*
X23757Y-21733D01*
X23738Y-21771D01*
X23738Y-21885D01*
X23757Y-21923D01*
X23776Y-21942D01*
X23814Y-21961D01*
X23890Y-21961D01*
X23928Y-21942D01*
X23623Y-21695D02*
X23471Y-21695D01*
X23566Y-21561D02*
X23566Y-21904D01*
X23547Y-21942D01*
X23509Y-21961D01*
X23471Y-21961D01*
X23280Y-21961D02*
X23319Y-21942D01*
X23338Y-21923D01*
X23357Y-21885D01*
X23357Y-21771D01*
X23338Y-21733D01*
X23319Y-21714D01*
X23280Y-21695D01*
X23223Y-21695D01*
X23185Y-21714D01*
X23166Y-21733D01*
X23147Y-21771D01*
X23147Y-21885D01*
X23166Y-21923D01*
X23185Y-21942D01*
X23223Y-21961D01*
X23280Y-21961D01*
X22976Y-21961D02*
X22976Y-21695D01*
X22976Y-21771D02*
X22957Y-21733D01*
X22938Y-21714D01*
X22900Y-21695D01*
X22861Y-21695D01*
X22480Y-21561D02*
X22347Y-21961D01*
X22214Y-21561D01*
X22004Y-21561D02*
X21966Y-21561D01*
X21928Y-21580D01*
X21909Y-21600D01*
X21890Y-21638D01*
X21871Y-21714D01*
X21871Y-21809D01*
X21890Y-21885D01*
X21909Y-21923D01*
X21928Y-21942D01*
X21966Y-21961D01*
X22004Y-21961D01*
X22042Y-21942D01*
X22061Y-21923D01*
X22080Y-21885D01*
X22100Y-21809D01*
X22100Y-21714D01*
X22080Y-21638D01*
X22061Y-21600D01*
X22042Y-21580D01*
X22004Y-21561D01*
X21700Y-21923D02*
X21680Y-21942D01*
X21700Y-21961D01*
X21719Y-21942D01*
X21700Y-21923D01*
X21700Y-21961D01*
X21300Y-21961D02*
X21528Y-21961D01*
X21414Y-21961D02*
X21414Y-21561D01*
X21452Y-21619D01*
X21490Y-21657D01*
X21528Y-21676D01*
X27395Y-22335D02*
X27319Y-22601D01*
X27242Y-22411D01*
X27166Y-22601D01*
X27090Y-22335D01*
X26976Y-22335D02*
X26900Y-22601D01*
X26823Y-22411D01*
X26747Y-22601D01*
X26671Y-22335D01*
X26557Y-22335D02*
X26480Y-22601D01*
X26404Y-22411D01*
X26328Y-22601D01*
X26252Y-22335D01*
X26100Y-22563D02*
X26080Y-22582D01*
X26100Y-22601D01*
X26119Y-22582D01*
X26100Y-22563D01*
X26100Y-22601D01*
X25909Y-22601D02*
X25909Y-22335D01*
X25909Y-22201D02*
X25928Y-22220D01*
X25909Y-22240D01*
X25890Y-22220D01*
X25909Y-22201D01*
X25909Y-22240D01*
X25661Y-22601D02*
X25699Y-22582D01*
X25719Y-22563D01*
X25738Y-22525D01*
X25738Y-22411D01*
X25719Y-22373D01*
X25699Y-22354D01*
X25661Y-22335D01*
X25604Y-22335D01*
X25566Y-22354D01*
X25547Y-22373D01*
X25528Y-22411D01*
X25528Y-22525D01*
X25547Y-22563D01*
X25566Y-22582D01*
X25604Y-22601D01*
X25661Y-22601D01*
X25357Y-22601D02*
X25357Y-22335D01*
X25357Y-22411D02*
X25338Y-22373D01*
X25319Y-22354D01*
X25280Y-22335D01*
X25242Y-22335D01*
X25052Y-22601D02*
X25090Y-22582D01*
X25109Y-22563D01*
X25128Y-22525D01*
X25128Y-22411D01*
X25109Y-22373D01*
X25090Y-22354D01*
X25052Y-22335D01*
X24995Y-22335D01*
X24957Y-22354D01*
X24938Y-22373D01*
X24919Y-22411D01*
X24919Y-22525D01*
X24938Y-22563D01*
X24957Y-22582D01*
X24995Y-22601D01*
X25052Y-22601D01*
X24576Y-22601D02*
X24576Y-22201D01*
X24576Y-22582D02*
X24614Y-22601D01*
X24690Y-22601D01*
X24728Y-22582D01*
X24747Y-22563D01*
X24766Y-22525D01*
X24766Y-22411D01*
X24747Y-22373D01*
X24728Y-22354D01*
X24690Y-22335D01*
X24614Y-22335D01*
X24576Y-22354D01*
X24233Y-22582D02*
X24271Y-22601D01*
X24347Y-22601D01*
X24385Y-22582D01*
X24404Y-22544D01*
X24404Y-22392D01*
X24385Y-22354D01*
X24347Y-22335D01*
X24271Y-22335D01*
X24233Y-22354D01*
X24214Y-22392D01*
X24214Y-22430D01*
X24404Y-22468D01*
X23985Y-22601D02*
X24023Y-22582D01*
X24042Y-22563D01*
X24061Y-22525D01*
X24061Y-22411D01*
X24042Y-22373D01*
X24023Y-22354D01*
X23985Y-22335D01*
X23928Y-22335D01*
X23890Y-22354D01*
X23871Y-22373D01*
X23852Y-22411D01*
X23852Y-22525D01*
X23871Y-22563D01*
X23890Y-22582D01*
X23928Y-22601D01*
X23985Y-22601D01*
X23680Y-22563D02*
X23661Y-22582D01*
X23680Y-22601D01*
X23700Y-22582D01*
X23680Y-22563D01*
X23680Y-22601D01*
X23319Y-22582D02*
X23357Y-22601D01*
X23433Y-22601D01*
X23471Y-22582D01*
X23490Y-22563D01*
X23509Y-22525D01*
X23509Y-22411D01*
X23490Y-22373D01*
X23471Y-22354D01*
X23433Y-22335D01*
X23357Y-22335D01*
X23319Y-22354D01*
X23090Y-22601D02*
X23128Y-22582D01*
X23147Y-22563D01*
X23166Y-22525D01*
X23166Y-22411D01*
X23147Y-22373D01*
X23128Y-22354D01*
X23090Y-22335D01*
X23033Y-22335D01*
X22995Y-22354D01*
X22976Y-22373D01*
X22957Y-22411D01*
X22957Y-22525D01*
X22976Y-22563D01*
X22995Y-22582D01*
X23033Y-22601D01*
X23090Y-22601D01*
X22785Y-22601D02*
X22785Y-22335D01*
X22785Y-22373D02*
X22766Y-22354D01*
X22728Y-22335D01*
X22671Y-22335D01*
X22633Y-22354D01*
X22614Y-22392D01*
X22614Y-22601D01*
X22614Y-22392D02*
X22595Y-22354D01*
X22557Y-22335D01*
X22500Y-22335D01*
X22461Y-22354D01*
X22442Y-22392D01*
X22442Y-22601D01*
G54D12*
X21000Y-27100D02*
X29000Y-27100D01*
X29000Y-27100D02*
X29000Y-23300D01*
X29000Y-23300D02*
X21000Y-23300D01*
X21000Y-23300D02*
X21000Y-27100D01*
X22283Y-22326D02*
X23465Y-22326D01*
X22888Y-23039D02*
X22288Y-22339D01*
X23488Y-22340D02*
X22888Y-23040D01*
G54D11*
X28995Y-23061D02*
X28995Y-22661D01*
X28842Y-22661D01*
X28804Y-22680D01*
X28785Y-22700D01*
X28766Y-22738D01*
X28766Y-22795D01*
X28785Y-22833D01*
X28804Y-22852D01*
X28842Y-22871D01*
X28995Y-22871D01*
X28385Y-23061D02*
X28614Y-23061D01*
X28499Y-23061D02*
X28499Y-22661D01*
X28538Y-22719D01*
X28576Y-22757D01*
X28614Y-22776D01*
G54D13*
X27024Y-26662D02*
X27309Y-26662D01*
X27167Y-26662D02*
X27167Y-26162D01*
X27214Y-26233D01*
X27262Y-26281D01*
X27309Y-26305D01*
X26714Y-26162D02*
X26667Y-26162D01*
X26619Y-26186D01*
X26595Y-26210D01*
X26571Y-26257D01*
X26548Y-26352D01*
X26548Y-26471D01*
X26571Y-26567D01*
X26595Y-26614D01*
X26619Y-26638D01*
X26667Y-26662D01*
X26714Y-26662D01*
X26762Y-26638D01*
X26786Y-26614D01*
X26809Y-26567D01*
X26833Y-26471D01*
X26833Y-26352D01*
X26809Y-26257D01*
X26786Y-26210D01*
X26762Y-26186D01*
X26714Y-26162D01*
X27142Y-24024D02*
X27047Y-24024D01*
X26999Y-24000D01*
X26975Y-23976D01*
X26927Y-23905D01*
X26904Y-23810D01*
X26904Y-23619D01*
X26927Y-23572D01*
X26951Y-23548D01*
X26999Y-23524D01*
X27094Y-23524D01*
X27142Y-23548D01*
X27166Y-23572D01*
X27189Y-23619D01*
X27189Y-23738D01*
X27166Y-23786D01*
X27142Y-23810D01*
X27094Y-23833D01*
X26999Y-23833D01*
X26951Y-23810D01*
X26927Y-23786D01*
X26904Y-23738D01*
X23134Y-26210D02*
X23111Y-26186D01*
X23063Y-26162D01*
X22944Y-26162D01*
X22896Y-26186D01*
X22872Y-26210D01*
X22849Y-26257D01*
X22849Y-26305D01*
X22872Y-26376D01*
X23158Y-26662D01*
X22849Y-26662D01*
M02*
