G04 (created by PCBNEW (2013-jul-07)-stable) date Wed 24 Jun 2015 12:24:46 PM PDT*
%MOIN*%
G04 Gerber Fmt 3.4, Leading zero omitted, Abs format*
%FSLAX34Y34*%
G01*
G70*
G90*
G04 APERTURE LIST*
%ADD10C,0.00590551*%
%ADD11R,0.07X0.07*%
%ADD12C,0.07*%
%ADD13C,0.06*%
%ADD14R,0.06X0.06*%
%ADD15C,0.035*%
%ADD16C,0.015*%
G04 APERTURE END LIST*
G54D10*
G54D11*
X23000Y-24700D03*
G54D12*
X23000Y-25700D03*
X24000Y-24700D03*
X24000Y-25700D03*
X25000Y-24700D03*
X25000Y-25700D03*
X26000Y-24700D03*
X26000Y-25700D03*
X27000Y-24700D03*
X27000Y-25700D03*
G54D13*
X29500Y-20600D03*
X28500Y-20600D03*
X26500Y-20600D03*
X27500Y-20600D03*
X25500Y-20600D03*
X24500Y-20600D03*
G54D14*
X20500Y-20600D03*
G54D13*
X21500Y-20600D03*
X22500Y-20600D03*
X23500Y-20600D03*
G54D15*
X22379Y-24143D03*
X27317Y-23730D03*
G54D16*
X23459Y-26240D02*
X24000Y-25700D01*
X22792Y-26240D02*
X23459Y-26240D01*
X22379Y-25826D02*
X22792Y-26240D01*
X22379Y-24143D02*
X22379Y-25826D01*
X25500Y-21912D02*
X27317Y-23730D01*
X25500Y-20600D02*
X25500Y-21912D01*
X27667Y-20767D02*
X27500Y-20600D01*
X27667Y-25780D02*
X27667Y-20767D01*
X27221Y-26225D02*
X27667Y-25780D01*
X26525Y-26225D02*
X27221Y-26225D01*
X26000Y-25700D02*
X26525Y-26225D01*
X20500Y-20600D02*
X20500Y-21075D01*
X23000Y-24700D02*
X23000Y-24174D01*
X20500Y-21674D02*
X20500Y-21075D01*
X23000Y-24174D02*
X20500Y-21674D01*
M02*
